<svg xmlns="http://www.w3.org/2000/svg" viewBox="0 0 48 48"><path fill="#727176" d="M29.12,33.37l-6.37-4.82-8.5.05-6,4.52A6,6,0,0,0,6,37.79v6.6l22.17,0Z"/><polyline fill="#bc5168" points="20 30.09 19.08 33.74 18.48 33.74 17.89 33.74 17 30.09"/><path fill="#d85b71" d="M19.08,33.74l1.73,4.81a1,1,0,0,1-.18,1l-1.76,2.1a.5.5,0,0,1-.77,0l-1.74-2.11a1,1,0,0,1-.17-1l1.7-4.81"/><path fill="#444242" d="M45,46H2.88a.85.85,0,1,1,0-1.7H45A.85.85,0,0,1,45,46Z"/><rect width="18.48" height="12.25" x="23.52" y="32.9" fill="#5b5b5f" rx="1" ry="1"/><path fill="#d6d7db" d="M36,40.24H32.85V36.09a.85.85,0,0,0-1.7,0v5a.85.85,0,0,0,.85.85h4a.85.85,0,0,0,0-1.7Z"/><circle cx="18.5" cy="25.09" r="5.69" fill="#e7ab8a"/></svg>